<?xml version="1.0" standalone="no"?>
<!DOCTYPE svg PUBLIC "-//W3C//DTD SVG 20010904//EN" "http://www.w3.org/TR/2001/REC-SVG-20010904/DTD/svg10.dtd">
<svg version="1.0" xmlns="http://www.w3.org/2000/svg" width="259.000000pt" height="259.000000pt"
    viewBox="0 0 259.000000 259.000000" preserveAspectRatio="xMidYMid meet">

    <g transform="translate(0.000000,259.000000) scale(0.100000,-0.100000)" fill="#6abe15" stroke="none">
        <path d="M1473 2300 c-65 -29 -125 -109 -148 -200 l-11 -45 -56 -3 -56 -3 -30
54 c-55 97 -137 149 -210 133 -15 -3 -42 -8 -60 -10 -73 -9 -109 -93 -62 -144
56 -60 136 -23 152 70 3 17 5 17 35 -2 34 -20 93 -94 93 -116 0 -6 -19 -23
-43 -37 -59 -35 -133 -117 -162 -180 -14 -28 -25 -58 -25 -65 0 -8 -23 7 -51
32 -170 153 -388 135 -474 -39 -19 -38 -27 -151 -26 -352 0 -62 37 -138 88
-183 60 -53 123 -72 219 -68 l75 3 -38 -29 c-115 -89 -213 -228 -232 -331 -8
-40 -6 -50 10 -66 10 -10 23 -19 27 -19 17 0 38 36 55 90 19 62 47 111 92 161
61 67 60 68 61 -49 0 -76 5 -118 16 -144 l16 -36 -35 -41 c-19 -23 -55 -55
-79 -72 -51 -35 -54 -58 -9 -71 39 -12 162 -2 216 16 39 14 45 13 79 -4 97
-50 232 -48 347 5 l56 25 23 -25 c13 -14 32 -25 43 -25 16 0 25 -18 51 -96 44
-130 57 -143 146 -151 154 -13 523 35 565 73 19 17 60 133 74 207 6 30 14 40
40 52 89 37 69 165 -26 165 -28 0 -38 5 -42 20 -5 18 0 20 58 20 35 0 66 4 70
9 7 13 -43 51 -67 51 -10 0 -32 -7 -47 -15 -28 -14 -28 -14 -40 25 -18 61 -88
156 -144 197 -29 20 -68 55 -87 76 -29 32 -43 40 -82 44 -63 7 -90 -1 -126
-38 l-30 -31 -45 22 c-64 32 -97 66 -97 98 0 27 2 28 95 44 56 9 121 28 161
47 54 25 65 28 59 13 -26 -64 -28 -74 -12 -89 21 -22 51 -9 69 31 14 29 22 34
64 39 39 4 55 12 81 41 27 30 33 44 33 82 0 30 -7 56 -21 75 -12 17 -16 29 -9
29 28 0 79 34 90 60 9 21 20 29 48 34 50 8 78 29 92 71 10 31 9 41 -9 77 -19
38 -19 44 -6 65 18 27 19 73 4 107 -12 25 -63 56 -93 56 -10 0 -16 9 -16 25 0
14 -13 39 -29 57 -25 28 -36 33 -75 33 -35 0 -51 -6 -73 -27 -26 -24 -30 -25
-48 -12 -30 23 -101 12 -134 -20 -21 -21 -26 -36 -26 -76 0 -43 -3 -50 -23
-55 -27 -7 -62 -60 -62 -95 0 -36 35 -88 65 -96 21 -5 24 -10 18 -28 -22 -62
6 -119 67 -137 47 -14 49 -25 15 -75 -14 -20 -25 -45 -25 -54 0 -13 -21 -27
-73 -49 -62 -25 -143 -50 -169 -51 -4 0 6 20 22 44 68 100 88 236 50 345 -39
116 -123 210 -226 252 -61 25 -60 23 -19 115 13 29 38 63 57 78 43 32 48 32
48 3 0 -52 87 -88 131 -54 43 33 49 84 15 124 -22 25 -31 28 -94 29 -48 1 -83
-4 -109 -16z m625 -222 c21 -21 13 -33 -23 -32 -21 1 -42 -5 -52 -14 -14 -15
-15 -14 -8 8 4 14 12 31 17 38 13 15 50 16 66 0z m-146 -65 c21 -48 17 -72
-13 -81 -8 -2 -5 3 6 11 19 15 18 16 -22 57 -23 23 -47 39 -53 35 -6 -3 -7
-11 -4 -17 4 -7 2 -8 -4 -4 -22 13 6 46 39 46 26 0 33 -6 51 -47z m142 -16
c-3 -8 -12 -18 -20 -21 -11 -4 -10 0 3 18 20 26 27 28 17 3z m-691 -43 c59
-20 145 -96 175 -157 93 -187 -3 -410 -201 -463 -57 -15 -123 -18 -130 -6 -3
4 18 6 46 5 l52 -2 -53 13 c-77 19 -130 46 -135 67 -7 26 -26 24 -36 -3 -7
-19 -4 -25 16 -36 14 -8 22 -16 19 -19 -3 -3 -30 13 -61 37 -31 24 -53 45 -50
48 3 3 19 -7 35 -23 38 -36 39 -22 3 19 l-28 31 28 -24 c33 -30 36 -13 3 18
-37 34 -78 136 -83 205 -9 112 47 229 132 274 80 42 172 48 268 16z m817 1
c14 -17 5 -51 -17 -59 -13 -5 -14 -4 -3 9 12 15 2 19 -46 18 -9 0 -12 31 -5
45 4 9 61 -1 71 -13z m-356 -47 c24 -10 25 -12 8 -24 -27 -18 -102 -22 -102
-5 0 16 31 41 50 41 11 0 31 -5 44 -12z m234 -13 c-3 -3 -9 2 -12 12 -6 14 -5
15 5 6 7 -7 10 -15 7 -18z m82 -6 c0 -5 -10 -8 -22 -8 -18 1 -19 2 -5 6 9 2
14 9 11 15 -4 7 -2 8 4 4 7 -4 12 -11 12 -17z m-380 -44 c7 -9 8 -15 2 -15 -5
0 -12 7 -16 15 -3 8 -4 15 -2 15 2 0 9 -7 16 -15z m100 -5 c-8 -5 -24 -9 -35
-9 -16 1 -16 2 5 9 35 11 48 11 30 0z m-880 -20 c-6 -11 -13 -20 -16 -20 -2 0
0 9 6 20 6 11 13 20 16 20 2 0 0 -9 -6 -20z m1184 -11 c28 -22 32 -59 8 -67
-8 -2 -10 2 -6 13 7 18 -20 53 -51 66 -20 8 -19 8 1 8 12 1 33 -9 48 -20z
m-1509 -29 c47 -20 142 -105 169 -150 10 -18 15 -31 10 -28 -5 2 -44 21 -87
42 -125 62 -234 61 -331 -1 l-39 -25 7 38 c11 64 54 116 111 136 55 19 97 16
160 -12z m1257 -32 c-8 -8 -9 -4 -5 13 4 13 8 18 11 10 2 -7 -1 -18 -6 -23z
m148 -60 c0 -9 -5 -20 -12 -24 -6 -4 -8 -3 -4 4 9 14 -14 63 -27 55 -6 -3 -7
-1 -3 6 4 6 2 20 -4 29 -7 9 2 1 19 -18 17 -19 31 -42 31 -52z m40 72 c8 -5
12 -11 10 -14 -3 -2 -14 2 -24 10 -22 15 -10 19 14 4z m-1163 -62 c-3 -7 -5
-2 -5 12 0 14 2 19 5 13 2 -7 2 -19 0 -25z m948 -8 c-19 -21 -50 -27 -59 -11
-3 4 5 6 19 4 16 -4 27 1 36 16 7 11 15 18 18 16 2 -3 -4 -14 -14 -25z m-1169
-125 c47 -23 97 -60 148 -107 42 -40 76 -77 76 -81 0 -10 -91 -1 -163 15 -26
6 -75 28 -108 50 -53 35 -63 39 -85 30 -71 -33 21 -124 171 -168 l60 -17 -53
-25 c-120 -54 -235 -53 -310 5 -87 66 -96 207 -18 282 72 70 161 75 282 16z
m221 13 c-3 -8 -6 -5 -6 6 -1 11 2 17 5 13 3 -3 4 -12 1 -19z m1033 -68 c39
-39 14 -100 -41 -100 -56 0 -82 73 -37 104 30 21 54 20 78 -4z m-983 -27 c-4
-3 -1 -13 6 -22 11 -14 10 -14 -5 -2 -16 12 -16 31 -1 31 4 0 3 -3 0 -7z m200
-149 c-3 -3 -12 -4 -19 -1 -8 3 -5 6 6 6 11 1 17 -2 13 -5z m271 -219 c-3
-115 -5 -123 -41 -195 -21 -42 -40 -97 -43 -126 -8 -62 -40 -109 -67 -98 -11
4 -16 13 -12 21 4 12 0 14 -17 9 -52 -15 -147 -18 -200 -7 -67 14 -167 62
-194 93 -10 12 -14 18 -8 15 7 -4 4 9 -6 28 -10 20 -21 58 -25 85 -5 34 -11
48 -18 43 -7 -3 -9 -3 -5 2 4 4 2 17 -4 29 -6 11 10 -2 35 -30 91 -101 209
-154 341 -154 40 0 93 7 119 16 50 17 57 29 73 133 7 41 6 44 -12 37 -53 -22
-96 -28 -174 -24 -106 6 -170 32 -234 97 -41 41 -45 49 -32 60 13 11 15 10 11
-8 -2 -11 0 -23 6 -26 5 -4 10 13 11 37 3 64 2 81 -6 103 l-8 20 13 -20 c36
-59 94 -102 177 -130 65 -21 178 -17 236 8 l39 17 -7 63 c-6 60 -5 65 16 74
21 9 24 7 31 -21 5 -17 7 -85 5 -151z m-538 47 c0 -15 -2 -15 -10 -2 -13 20
-13 33 0 25 6 -3 10 -14 10 -23z m907 -34 c27 -26 30 -73 6 -100 -17 -19 -87
-26 -98 -9 -3 6 9 7 30 4 44 -7 44 0 1 26 -41 26 -57 27 -50 4 5 -15 4 -16 -5
-3 -17 24 -13 52 11 77 28 30 74 30 105 1z m-303 -59 c-21 -24 -27 -19 -18 15
5 21 9 24 20 15 12 -10 12 -15 -2 -30z m-715 -24 c0 -5 -6 1 -14 15 -8 14 -14
30 -14 35 0 6 6 -1 14 -15 8 -14 14 -29 14 -35z m807 -20 c-13 -10 -23 -11
-31 -5 -13 11 -38 -10 -33 -28 2 -5 -12 -30 -31 -56 -23 -34 -37 -44 -44 -37
-16 16 9 57 71 120 50 51 55 53 70 37 16 -16 16 -18 -2 -31z m-859 3 c-3 -7
-5 -2 -5 12 0 14 2 19 5 13 2 -7 2 -19 0 -25z m1203 6 c58 -50 117 -154 133
-240 5 -26 2 -33 -13 -37 -15 -4 -20 0 -20 14 0 28 -38 123 -65 163 -13 19
-25 45 -27 58 -2 17 -9 23 -28 23 -18 0 -26 6 -28 23 -4 29 9 28 48 -4z m-197
-91 c29 -3 54 2 80 15 l37 20 44 -49 c39 -43 84 -135 72 -147 -3 -2 -14 -1
-25 3 -14 4 -21 15 -21 32 0 58 -73 86 -104 41 -33 -47 -116 -51 -116 -5 0 23
-35 57 -60 57 -12 0 -31 -11 -44 -25 -13 -14 -34 -25 -49 -25 -44 0 -74 -63
-42 -90 11 -9 12 -17 5 -30 -6 -10 -10 -28 -10 -38 0 -15 -5 -19 -21 -15 -19
5 -20 11 -14 52 13 90 61 174 128 222 l39 29 30 -22 c16 -11 49 -23 71 -25z
m-308 -143 c-8 -30 -15 -67 -15 -82 0 -18 -5 -28 -15 -28 -18 0 -18 8 -4 86
13 68 27 100 40 87 5 -5 2 -32 -6 -63z m233 42 c-4 -21 -30 -22 -33 -2 -2 10
5 17 17 17 13 1 18 -4 16 -15z m220 -24 c-2 -13 -10 -23 -18 -23 -8 0 -16 10
-18 23 -3 17 2 22 18 22 16 0 21 -5 18 -22z m-317 -22 c5 3 6 11 3 17 -5 8 -3
8 7 0 9 -10 10 -16 2 -24 -14 -14 -33 -3 -32 19 1 15 2 15 6 -1 2 -9 9 -15 14
-11z m77 -29 c2 -10 -3 -17 -12 -17 -18 0 -29 16 -21 31 9 14 29 6 33 -14z
m77 3 c0 -8 -9 -16 -20 -18 l-20 -4 20 17 c11 9 15 14 8 11 -6 -4 -15 -1 -18
5 -5 7 0 10 11 7 11 -2 19 -10 19 -18z m104 6 c9 -10 8 -16 -4 -26 -19 -15
-47 3 -38 26 7 18 27 18 42 0z m89 -27 c4 -19 -27 -34 -41 -20 -14 14 0 43 20
39 10 -2 19 -10 21 -19z m-1113 -87 c-4 -5 -14 5 -55 53 -16 20 -10 17 17 -9
24 -22 41 -42 38 -44z m1373 44 c5 -22 -22 -46 -50 -46 -11 0 -15 5 -12 15 10
24 -13 17 -42 -12 -19 -20 -25 -23 -20 -10 3 10 6 27 6 36 0 13 12 21 43 28
56 14 71 12 75 -11z m-583 -5 c-3 -6 -11 -11 -16 -11 -5 0 -4 6 3 14 14 16 24
13 13 -3z m85 -3 c0 -6 -6 -5 -15 2 -12 10 -15 10 -15 0 0 -8 -3 -11 -6 -7 -3
3 -3 10 0 16 8 12 36 3 36 -11z m331 -40 c-8 -22 -20 -26 -106 -42 -95 -17
-98 -17 -119 2 -26 23 -59 18 -51 -8 5 -16 -3 -18 -72 -22 -56 -3 -82 -1 -94
9 -8 7 -26 13 -39 13 -19 0 -20 -2 -10 -15 11 -13 8 -15 -22 -15 -28 0 -35 5
-44 29 l-11 28 151 6 c139 6 317 27 391 46 35 9 39 3 26 -31z m-1186 -8 c-6
-9 8 -14 28 -11 5 1 6 -3 2 -9 -4 -7 -12 -7 -26 0 -17 9 -19 30 -3 30 3 0 2
-4 -1 -10z m586 -42 c7 -27 6 -28 -30 -28 -44 0 -83 24 -74 46 4 11 18 14 51
12 40 -3 47 -6 53 -30z m-501 8 c0 -2 -7 -7 -16 -10 -8 -3 -12 -2 -9 4 6 10
25 14 25 6z m27 -22 c-3 -3 -12 -4 -19 -1 -8 3 -5 6 6 6 11 1 17 -2 13 -5z
m1151 -11 c-2 -13 -23 -22 -78 -35 -100 -22 -112 -22 -108 -1 3 15 80 37 181
52 5 0 7 -7 5 -16z m-1065 0 c-13 -2 -35 -2 -50 0 -16 2 -5 4 22 4 28 0 40 -2
28 -4z m827 -43 c0 -11 -6 -20 -14 -20 -7 0 -34 -3 -60 -6 -38 -6 -46 -4 -46
9 0 16 16 23 75 30 17 2 33 5 38 6 4 0 7 -8 7 -19z m-160 -15 c0 -8 -9 -15
-20 -15 -11 0 -20 7 -20 15 0 8 9 15 20 15 11 0 20 -7 20 -15z m-212 -13 c2
-8 -8 -11 -30 -11 -32 2 -32 2 -4 6 23 4 26 7 15 15 -12 8 -12 9 0 6 8 -3 17
-10 19 -16z m142 3 c0 -11 -12 -15 -45 -15 -33 0 -45 4 -45 15 0 11 12 15 45
15 33 0 45 -4 45 -15z m450 -9 c0 -19 -7 -23 -54 -31 -33 -7 -38 -5 -34 11 5
28 88 47 88 20z m-130 -15 c0 -22 -34 -41 -71 -41 -53 0 -54 27 -1 35 20 4 42
8 47 10 18 6 25 5 25 -4z m-150 -34 c0 -20 -149 -34 -161 -15 -11 18 12 25 94
27 52 2 67 -1 67 -12z m-355 -7 c-3 -5 1 -10 10 -10 10 0 14 5 9 13 -6 10 -4
10 7 0 7 -7 20 -13 29 -13 13 0 13 1 0 10 -11 7 0 10 38 10 40 0 52 -3 52 -15
0 -13 -13 -15 -77 -13 -50 2 -78 7 -81 16 -2 6 1 12 8 12 6 0 8 -4 5 -10z
m608 -30 c-4 -14 -19 -22 -62 -30 -31 -6 -64 -12 -73 -14 -12 -3 -18 2 -18 15
0 11 9 21 23 23 135 30 136 30 130 6z m-203 -30 c0 -25 -67 -41 -81 -19 -15
24 -10 28 34 32 23 2 43 4 45 5 1 1 2 -7 2 -18z m-136 -15 c4 -11 -2 -15 -22
-14 -17 1 -20 3 -9 6 9 2 15 9 12 14 -4 5 -2 9 3 9 6 0 12 -7 16 -15z m-194
-16 c0 -6 -4 -7 -10 -4 -5 3 -10 11 -10 16 0 6 5 7 10 4 6 -3 10 -11 10 -16z
m123 -6 c-13 -2 -33 -2 -45 0 -13 2 -3 4 22 4 25 0 35 -2 23 -4z" />
        <path d="M1417 1782 c-35 -38 -9 -102 40 -102 25 0 56 33 51 56 -2 13 -12 18
-33 19 -25 0 -30 4 -29 23 1 27 -7 28 -29 4z" />
        <path d="M1140 1720 c-24 -24 -25 -48 -4 -78 21 -31 69 -30 90 3 21 32 12 60
-14 46 -25 -13 -46 2 -39 28 7 26 -7 27 -33 1z" />
        <path d="M1405 1610 c-43 -26 -60 -30 -121 -30 -91 0 -101 -10 -84 -80 21 -88
100 -142 185 -126 51 10 110 66 123 119 16 63 -8 148 -42 146 -6 0 -33 -13
-61 -29z m45 -103 c-27 -78 -109 -99 -166 -42 -39 39 -32 55 24 55 30 0 64 8
92 23 56 29 69 20 50 -36z" />
        <path d="M1705 840 c-3 -5 -1 -10 4 -10 6 0 11 5 11 10 0 6 -2 10 -4 10 -3 0
-8 -4 -11 -10z" />
        <path d="M1680 769 c0 -5 5 -7 10 -4 6 3 10 8 10 11 0 2 -4 4 -10 4 -5 0 -10
-5 -10 -11z" />
        <path d="M1398 603 c12 -2 32 -2 45 0 12 2 2 4 -23 4 -25 0 -35 -2 -22 -4z" />
        <path d="M1838 373 c7 -3 16 -2 19 1 4 3 -2 6 -13 5 -11 0 -14 -3 -6 -6z" />
        <path d="M2197 1033 c-21 -24 -31 -68 -20 -88 8 -14 12 -13 30 7 22 24 26 37
24 76 -1 27 -12 28 -34 5z" />
        <path d="M2286 981 c-10 -16 5 -42 23 -39 21 4 21 42 -1 46 -9 2 -19 -1 -22
-7z" />
    </g>
</svg>